<svg xmlns="http://www.w3.org/2000/svg" preserveAspectRatio="none" viewBox="0 0 32 32"><g transform="translate(1657.689 -1431.427)"><path d="M-1657.689,1431.427h32v32h-32Z" fill="none"/><path d="M-1651.213,1439.427h21.714v-2.667h-21.714a2.675,2.675,0,0,0-2.667,2.667v14.667h-2.667v4h16.381v-4h-11.047Z" fill="#858c9e"/><path d="M-1628.166,1442.094h-8a1.337,1.337,0,0,0-1.333,1.333v13.333a1.337,1.337,0,0,0,1.333,1.334h8a1.337,1.337,0,0,0,1.334-1.334v-13.333A1.337,1.337,0,0,0-1628.166,1442.094Zm-1.333,12h-5.333v-9.334h5.333Z" fill="#858c9e"/></g></svg>