<svg xmlns="http://www.w3.org/2000/svg" preserveAspectRatio="none" viewBox="0 0 32 32"><g transform="translate(1547.568 -1432.316)"><path d="M-1547.568,1432.316h32v32h-32Z" fill="none"/><rect width="10.667" height="10.667" rx="1.333" transform="translate(-1530.234 1450.244)" fill="#858c9e"/><rect width="10.667" height="10.667" rx="1.333" transform="translate(-1543.568 1450.244)" fill="#858c9e"/><rect width="10.667" height="10.667" rx="1.333" transform="translate(-1543.568 1436.911)" fill="#858c9e"/><path d="M-1526.3,1436.111l-5.667,5.653a1.328,1.328,0,0,0,0,1.88l5.667,5.667a1.328,1.328,0,0,0,1.88,0l5.667-5.667a1.328,1.328,0,0,0,0-1.88l-5.654-5.653A1.344,1.344,0,0,0-1526.3,1436.111Z" fill="#858c9e"/></g></svg>