<svg xmlns="http://www.w3.org/2000/svg" preserveAspectRatio="none" viewBox="0 0 24 24"><g transform="translate(1179.819 -1093.607)"><path d="M-1179.819,1093.607h24v24h-24Z" fill="none"/><path d="M-1175.94,1113.607h16.242a.891.891,0,0,0,.763-1.333l-8.126-14.22a.866.866,0,0,0-1.516,0l-8.125,14.22A.891.891,0,0,0-1175.94,1113.607Zm8.126-2.666h0a.883.883,0,0,1-.877-.889h0a.883.883,0,0,1,.877-.889h0a.882.882,0,0,1,.876.889h0A.882.882,0,0,1-1167.814,1110.941Zm0-3.555a.886.886,0,0,1-.877-.889v-1.777a.886.886,0,0,1,.877-.889.885.885,0,0,1,.876.889v1.777A.885.885,0,0,1-1167.814,1107.386Z" fill="#858c9e"/></g></svg>