<svg xmlns="http://www.w3.org/2000/svg" xmlns:xlink="http://www.w3.org/1999/xlink" preserveAspectRatio="none" viewBox="0 0 32 32"><defs><radialGradient id="a" cx="-1.173" cy="0.849" r="1.432" gradientTransform="translate(0.339 -0.042) scale(1.442 1.05)" gradientUnits="objectBoundingBox"><stop offset="0.552" stop-opacity="0.6"/><stop offset="1" stop-opacity="0"/></radialGradient></defs><g transform="translate(5868 -8119)"><g transform="translate(36 1)"><g transform="translate(-5904 8125)"><path d="M-5843.076,2227.72h-6.478c-.709,0-1.485.041-2.334.12a15.468,15.468,0,0,0-2.529.456,8.917,8.917,0,0,0-2.314.968,5.033,5.033,0,0,0-1.7,1.658,4.656,4.656,0,0,0-.646,2.529,2.935,2.935,0,0,0,.719,1.873,8.514,8.514,0,0,0,1.831,1.65,19.489,19.489,0,0,0,2.368,1.387c.459.251.9.5,1.339.734q.88.467,1.6.88a8.989,8.989,0,0,1,1.152.759c.288.231.434.443.434.639a.561.561,0,0,1-.271.492,1.753,1.753,0,0,1-.614.248,2.958,2.958,0,0,1-.562.07h-4.556a.532.532,0,0,0-.43.215c-.137.184-.281.365-.425.54-.2.25-.416.494-.632.731-.25.273-.507.538-.779.788a8.4,8.4,0,0,1-.864.711c-.113.081-.228.157-.346.228-.06.035-.115.068-.176.1-.083.044-.2.087-.2.205s.125.132.2.141a1.033,1.033,0,0,0,.138.008h4.719q1.047,0,2.325-.115a14.9,14.9,0,0,0,2.538-.449,8.673,8.673,0,0,0,2.308-.974,5.105,5.105,0,0,0,1.692-1.656,4.647,4.647,0,0,0,.646-2.537,2.992,2.992,0,0,0-.716-1.879,8.666,8.666,0,0,0-1.833-1.689,17.764,17.764,0,0,0-2.369-1.4q-.8-.443-1.555-.836-.831-.43-1.492-.809a7.848,7.848,0,0,1-1.061-.7c-.267-.215-.4-.411-.4-.589a.566.566,0,0,1,.27-.505,1.744,1.744,0,0,1,.615-.248,2.949,2.949,0,0,1,.562-.07h8.7a.556.556,0,0,0,.5-.331l1.128-2.509A.58.58,0,0,0-5843.076,2227.72Z" transform="translate(5874.522 -2227.53)" fill="#495060"/><path d="M-5851.855,2230.4a14.7,14.7,0,0,0-.814-1.813c-.134-.248-.318-.472-.471-.711a15.018,15.018,0,0,0-1.533.277,8.936,8.936,0,0,0-2.316.966,5.04,5.04,0,0,0-1.7,1.659,4.219,4.219,0,0,0-.54,1.623,8.463,8.463,0,0,1,.134,1.481c0,.148-.015.3-.022.452a3.392,3.392,0,0,0,.5.846,8.6,8.6,0,0,0,1.833,1.652,19.221,19.221,0,0,0,2.369,1.385c.459.254.9.5,1.339.735q.847.453,1.543.85a17.17,17.17,0,0,0,.576-4.281c0-.323-.035-.671-.06-1.009-.213-.115-.431-.236-.639-.343q-.834-.431-1.494-.81a8.025,8.025,0,0,1-1.062-.7q-.4-.322-.4-.589a.571.571,0,0,1,.27-.506,1.79,1.79,0,0,1,.617-.246,2.945,2.945,0,0,1,.56-.07h1.532a1.056,1.056,0,0,1-.285-.6A1.091,1.091,0,0,1-5851.855,2230.4Z" transform="translate(5874.774 -2227.388)" fill="url(#a)"/><path d="M-5867.252,2238.668a10.148,10.148,0,0,1,.844-4.023,11.529,11.529,0,0,1,2.381-3.55,11.826,11.826,0,0,1,3.633-2.524,11.032,11.032,0,0,1,4.606-.949,9.433,9.433,0,0,1,3.205.486,6.793,6.793,0,0,1,2.229,1.286,6.477,6.477,0,0,1,1.411,1.764,7.536,7.536,0,0,1,.735,1.974,8.989,8.989,0,0,1,.216,1.878,10.3,10.3,0,0,1-.867,4.168,11.551,11.551,0,0,1-2.417,3.551,11.673,11.673,0,0,1-3.64,2.467,11.25,11.25,0,0,1-4.539.91,9.49,9.49,0,0,1-3.176-.475,6.693,6.693,0,0,1-2.225-1.265,6.535,6.535,0,0,1-1.423-1.766,7.44,7.44,0,0,1-.751-2A9.105,9.105,0,0,1-5867.252,2238.668Zm10.6-7.353a3.864,3.864,0,0,0-2.362.823,8.1,8.1,0,0,0-1.93,2.107,11.85,11.85,0,0,0-1.306,2.72,8.53,8.53,0,0,0-.477,2.676,4.293,4.293,0,0,0,.222,1.429,2.073,2.073,0,0,0,.7.994,2,2,0,0,0,1.234.36h1.979a3.884,3.884,0,0,0,2.367-.823,8.09,8.09,0,0,0,1.936-2.1,11.534,11.534,0,0,0,1.306-2.719,8.6,8.6,0,0,0,.477-2.683,4.128,4.128,0,0,0-.227-1.424,2.141,2.141,0,0,0-.706-.994,1.973,1.973,0,0,0-1.235-.368Z" transform="translate(5867.252 -2227.622)" fill="#495060"/></g><rect width="32" height="32" transform="translate(-5904 8118)" fill="none" opacity="0.2"/></g></g></svg>