<svg xmlns="http://www.w3.org/2000/svg" xmlns:xlink="http://www.w3.org/1999/xlink" preserveAspectRatio="none" viewBox="0 0 28 28">
    <defs>
        <linearGradient id="a" x1="0.594" y1="0.726" x2="0.315" y2="0.033" gradientUnits="objectBoundingBox">
            <stop offset="0" stop-opacity="0" />
            <stop offset="1" stop-opacity="0.6" />
        </linearGradient>
    </defs>
    <g transform="translate(-2427 -140)">
        <path d="M0,0H28V28H0Z" transform="translate(2427 140)" fill="none" />
        <g transform="translate(-50.604 47.66)">
            <path
                d="M-5941.2,2228.578l-6.672,14.224a.548.548,0,0,1-.5.315h-5.557a1.823,1.823,0,0,1-1.825-1.824l.522-4.538,1.32-8.494a.548.548,0,0,1,.542-.463h2.89a.7.7,0,0,1,.443.373l-1.972,10.425s-.24,1.4.894,1.4l5.571-11.883a.549.549,0,0,1,.5-.315h3.345A.548.548,0,0,1-5941.2,2228.578Z"
                transform="translate(8445.553 -2129.459)" fill="#858c9e" />
            <path
                d="M-5952,2238.6l1.969-10.425a.7.7,0,0,0-.443-.373h-2.89a.548.548,0,0,0-.542.463l-1.32,8.494-.522,4.538a1.825,1.825,0,0,0,.143.709l3.743-2.414A1.749,1.749,0,0,1-5952,2238.6Z"
                transform="translate(8445.553 -2129.459)" opacity="0.35" fill="url(#a)" />
            <path
                d="M-5960.643,2243.117h5.083a.545.545,0,0,0,.459-.248l9.461-14.508c.308-.47-.284-.563-.3-.563h-2.958a.544.544,0,0,0-.463.256l-7.475,11.941a1,1,0,0,1-.8-1.554l4.439-9.872a.546.546,0,0,0-.5-.771h-3.331a.553.553,0,0,0-.513.35l-4.8,12.49A1.825,1.825,0,0,0-5960.643,2243.117Z"
                transform="translate(8441.074 -2129.459)" fill="#858c9e" />
        </g>
    </g>
</svg>