<svg xmlns="http://www.w3.org/2000/svg" preserveAspectRatio="none" viewBox="0 0 28 28">
    <g transform="translate(-595 -452)">
        <path d="M-1657.689,1431.427h28v28h-28Z" transform="translate(2252.689 -979.427)" fill="blue" opacity="0" />
        <g transform="translate(1560.467 -721.532)">
            <path
                d="M-944.695,1190.96v-8.919a1.119,1.119,0,0,0-1.115-1.115h-13.379a1.119,1.119,0,0,0-1.115,1.115v.7a14.53,14.53,0,0,1,9.331,9.333h5.162A1.119,1.119,0,0,0-944.695,1190.96Z"
                transform="translate(1.031 1.031)" fill="#3699ff" />
            <path
                d="M-941.435,1177.5H-961.5a2.235,2.235,0,0,0-2.229,2.229v2.229a1.117,1.117,0,0,0,1.115,1.115,1.118,1.118,0,0,0,1.115-1.115v-1.115a1.119,1.119,0,0,1,1.115-1.115h17.837a1.118,1.118,0,0,1,1.115,1.115v13.379a1.118,1.118,0,0,1-1.115,1.115h-5.573a1.119,1.119,0,0,0-1.116,1.115,1.119,1.119,0,0,0,1.116,1.115h6.688a2.236,2.236,0,0,0,2.231-2.229v-15.608A2.236,2.236,0,0,0-941.435,1177.5Z"
                transform="translate(0)" fill="#3699ff" />
            <path d="M-963.731,1190.356v3.344h3.344a3.38,3.38,0,0,0-.568-1.873A3.331,3.331,0,0,0-963.731,1190.356Z"
                transform="translate(0 3.866)" fill="#3699ff" />
            <path
                d="M-962.46,1187.007a1.114,1.114,0,0,0-1.271,1.115,1.111,1.111,0,0,0,.947,1.093,5.6,5.6,0,0,1,4.548,4.55,1.112,1.112,0,0,0,1.093.947,1.119,1.119,0,0,0,1.115-1.271A7.8,7.8,0,0,0-962.46,1187.007Z"
                transform="translate(0 2.855)" fill="#3699ff" />
            <path
                d="M-962.506,1183.542a1.126,1.126,0,0,0-1.225,1.116,1.1,1.1,0,0,0,.981,1.1,10.032,10.032,0,0,1,9.008,9.009,1.092,1.092,0,0,0,1.1.97,1.122,1.122,0,0,0,1.115-1.238A12.288,12.288,0,0,0-962.506,1183.542Z"
                transform="translate(0 1.816)" fill="#3699ff" />
        </g>
    </g>
</svg>