<svg xmlns="http://www.w3.org/2000/svg" xmlns:xlink="http://www.w3.org/1999/xlink" preserveAspectRatio="none" viewBox="0 0 28 28"><defs><linearGradient id="a" x1="0.437" y1="0.5" x2="1.037" y2="0.5" gradientUnits="objectBoundingBox"><stop offset="0" stop-opacity="0"/><stop offset="1" stop-opacity="0.6"/></linearGradient></defs><g transform="translate(-2491 -158)"><path d="M0,0H28V28H0Z" transform="translate(2491 158)" fill="none"/><g transform="translate(59.025 -38.445)"><path d="M-5917.041,2227.861h-3.693a10.68,10.68,0,0,0-3.488.545,10.119,10.119,0,0,0-2.816,1.469,9.572,9.572,0,0,0-2.074,2.111,9.477,9.477,0,0,0-1.283,2.495,8.145,8.145,0,0,0-.438,2.594,6.561,6.561,0,0,0,.411,2.318,5.384,5.384,0,0,0,1.267,1.952,6,6,0,0,0,2.175,1.34,8.927,8.927,0,0,0,3.126.492h2.862l1.466-3.12h-5.311a1.872,1.872,0,0,1-1.111-.305,1.788,1.788,0,0,1-.632-.838,3.413,3.413,0,0,1-.2-1.208,6.7,6.7,0,0,1,.4-2.175,8.923,8.923,0,0,1,1.13-2.2,6.656,6.656,0,0,1,1.677-1.695,3.552,3.552,0,0,1,2.069-.662l3.1-.01a.359.359,0,0,0,.319-.193l1.317-2.48h0C-5916.532,2227.859-5917.041,2227.861-5917.041,2227.861Z" transform="translate(8363.809 -2025.416)" fill="#858c9e"/><path d="M-5925.135,2235.177h-5.252a5.414,5.414,0,0,0,.934,1.288,6.015,6.015,0,0,0,2.175,1.342,8.932,8.932,0,0,0,3.125.492h4.328v-3.122Z" transform="translate(8364.107 -2020.539)" opacity="0.32" fill="url(#a)"/><path d="M-5920.433,2231.23l.33-.693c-.026.052-.041.088-.041.088Z" transform="translate(8370.744 -2023.631)" fill="#ff2e74"/><path d="M-5918.757,2229.734l1.856,0h-1.841Z" transform="translate(8371.861 -2024.168)" fill="#ff2e74"/><path d="M-5914.352,2238.377l-1.359,4.325a.366.366,0,0,0,.349.474h2.725a.367.367,0,0,0,.351-.26l4.295-14.352a.546.546,0,0,0-.524-.7h-7.964a2.734,2.734,0,0,0-2.43,1.48l-7.146,13.835h4.322a.361.361,0,0,0,.329-.208l5.193-10.942a1.823,1.823,0,0,1,1.646-1.044l2.534,0-1.347,4.276Z" transform="translate(8366.994 -2025.416)" fill="#858c9e"/><path d="M-5920.436,2235.419h3.554V2232.3h-2.435a.369.369,0,0,0-.331.21l-1.12,2.391A.366.366,0,0,0-5920.436,2235.419Z" transform="translate(8370.496 -2022.457)" fill="#858c9e"/></g></g></svg>