<svg xmlns="http://www.w3.org/2000/svg" xmlns:xlink="http://www.w3.org/1999/xlink" preserveAspectRatio="none" viewBox="0 0 32 32">
    <defs>
        <linearGradient id="a" x1="0.383" y1="0.448" x2="1.288" y2="0.687" gradientUnits="objectBoundingBox">
            <stop offset="0" stop-color="#683d05" stop-opacity="0" />
            <stop offset="1" stop-color="#af0000" />
        </linearGradient>
    </defs>
    <g transform="translate(5650 -8165)">
        <g transform="translate(0 -50)">
            <g transform="translate(0 0)">
                <g transform="translate(-5650 8222)">
                    <path
                        d="M-5883.622,2228.935a.958.958,0,0,0-.108-.083,3.317,3.317,0,0,0-.459-.244,6.321,6.321,0,0,0-1.311-.432,10.665,10.665,0,0,0-1.39-.2c-.24-.021-.481-.036-.72-.048-1.452-.07-2.908-.059-4.361-.047a1.092,1.092,0,0,0-.438.064,1.106,1.106,0,0,0-.467.583q-1.835,3.912-3.67,7.822c-.329.7-.65,1.419-.922,2.147l-.012-.011-1.39,2.985a2.7,2.7,0,0,0,2.446,3.841h4.84l-.028-.036a12.74,12.74,0,0,0,6.4-1.674,3.674,3.674,0,0,1-1.071-2.719,7.057,7.057,0,0,1,.748-2.889,7.245,7.245,0,0,1-3.512,3.493,7.2,7.2,0,0,1-2.474.31c-.561,0-1.121-.025-1.681-.049a1.2,1.2,0,0,1-.959-.343c-.248-.338-.075-.812.1-1.192q1.864-3.981,3.731-7.961a1.6,1.6,0,0,1,.414-.613,1.591,1.591,0,0,1,1.019-.214l1.63.023a2.07,2.07,0,0,1,1.772.612c.142.211.351.525.56.379a.378.378,0,0,0,.118-.168c.222-.482.438-.97.649-1.457s.424-.974.616-1.468A.331.331,0,0,0-5883.622,2228.935Z"
                        transform="translate(5899.128 -2227.878)" fill="#ffa600" />
                    <path
                        d="M-5898.872,2236.672a2.7,2.7,0,0,0,2.446,3.842h4.065c.037,0,.063.006.1.006l.281-.006h.4l-.007-.011.255-.005a12.409,12.409,0,0,0,6.124-1.7,3.9,3.9,0,0,1-.388-.408,3.972,3.972,0,0,1-.682-2.288,6.78,6.78,0,0,1,.693-2.8l.053-.108a10.815,10.815,0,0,1-.659,1.088,7.586,7.586,0,0,1-1.917,1.929,4.079,4.079,0,0,1-2.361.755h-2.73a1.186,1.186,0,0,1-.827-.23.755.755,0,0,1-.243-.572,1.559,1.559,0,0,1,.184-.694l.134-.288h-4.221Z"
                        transform="translate(5899.128 -2223.08)" opacity="0.35" fill="url(#a)" />
                    <path
                        d="M-5882.133,2245.321a7.489,7.489,0,0,0,3.578-.814,6.066,6.066,0,0,0,2.363-2.192,5.912,5.912,0,0,0,.848-3.1,3.914,3.914,0,0,0-.643-2.214,7.285,7.285,0,0,0,2.544-2.02,4.322,4.322,0,0,0,.924-2.7,3.914,3.914,0,0,0-.681-2.276,4.529,4.529,0,0,0-2.039-1.552,8.947,8.947,0,0,0-3.415-.565h-7.183a.626.626,0,0,0-.565.359l-6.558,14.127a2.077,2.077,0,0,0,1.882,2.952Zm4.808-12.389-.183.377a2.423,2.423,0,0,1-2.484,1.5h-2.041a.417.417,0,0,0-.377.24l-1.278,2.722a.417.417,0,0,0,.376.594h2.444a1.3,1.3,0,0,1,.84.225.626.626,0,0,1,.273.415c0,.125.005.2.005.235a1.563,1.563,0,0,1-.144.634l-.183.389a2.455,2.455,0,0,1-1.15,1.187,3.392,3.392,0,0,1-1.407.322h-3.356a1.18,1.18,0,0,1-.813-.225.73.73,0,0,1-.244-.566,1.759,1.759,0,0,1,.169-.718l.9-1.9,1.68-3.555,1.37-2.906a.832.832,0,0,1,.751-.476h3.963a1.068,1.068,0,0,1,.735.225.742.742,0,0,1,.273.426c.015.133.023.221.023.262A1.423,1.423,0,0,1-5877.325,2232.932Z"
                        transform="translate(5904.519 -2227.873)" fill="#ffa600" />
                </g>
            </g>
            <rect width="32" height="32" transform="translate(-5650 8215)" fill="none" opacity="0.2" />
        </g>
    </g>
</svg>