<svg xmlns="http://www.w3.org/2000/svg" preserveAspectRatio="none" viewBox="0 0 28 28">
    <g transform="translate(1441.575 -1431.784)">
        <path d="M-1441.575,1431.784h28v28h-28Z" fill="none" />
        <g transform="translate(-1438.074 1434.491)">
            <path
                d="M-1426.309,1456.255a1.262,1.262,0,0,1-1.543,0l-7.713-5.995a1.24,1.24,0,0,0-1.53,0,1.25,1.25,0,0,0,0,1.969l8.477,6.6a2.524,2.524,0,0,0,3.085,0l8.478-6.6a1.25,1.25,0,0,0,0-1.969l-.012-.013a1.244,1.244,0,0,0-1.53,0Z"
                transform="translate(1437.574 -1436.766)" fill="#ffa800" />
            <path
                d="M-1425.532,1450.579l8.478-6.6a1.262,1.262,0,0,0,0-1.981l-8.478-6.6a2.522,2.522,0,0,0-3.085,0l-8.477,6.609a1.263,1.263,0,0,0,0,1.982l8.477,6.6A2.5,2.5,0,0,0-1425.532,1450.579Z"
                transform="translate(1437.574 -1434.878)" fill="#ffa800" />
        </g>
    </g>
</svg>