<svg xmlns="http://www.w3.org/2000/svg" preserveAspectRatio="none"  viewBox="0 0 24 24"><g transform="translate(-1387 -394)"><path d="M0,0H24V24H0Z" transform="translate(1387 394)" fill="rgba(0,0,0,0)"/><g transform="translate(32.279 36.804)"><path d="M2513.5,2381.6a5,5,0,1,1,5-5A5.006,5.006,0,0,1,2513.5,2381.6Z" transform="translate(-1141.637 -2004.264)" fill="#989faf"/><path d="M8.6,14H5A5.006,5.006,0,0,1,0,9V5A5.006,5.006,0,0,1,5,0h6.012a4.985,4.985,0,0,1,4.86,3.82A6.56,6.56,0,0,0,8.6,14Z" transform="translate(1357.721 362.196)" fill="#989faf"/><line y2="2" transform="translate(1362.721 361.196)" fill="none" stroke="#989faf" stroke-linecap="round" stroke-miterlimit="10" stroke-width="2"/><line y2="2" transform="translate(1368.721 361.196)" fill="none" stroke="#989faf" stroke-linecap="round" stroke-miterlimit="10" stroke-width="2"/><g transform="translate(1373.72 369.196)"><path d="M2514.624,2375.456v3.052h0l2,.948" transform="translate(-2514.624 -2374.456)" fill="none" stroke="#fff" stroke-linecap="round" stroke-linejoin="round" stroke-width="1"/></g></g></g></svg>