<svg xmlns="http://www.w3.org/2000/svg" width="250" height="250" viewBox="0 0 250 250">
  <g id="그룹_32030" data-name="그룹 32030" transform="translate(1226.548 -1093.607)">
    <path id="패스_13742" data-name="패스 13742" d="M-1226.548,1093.608h250v250h-250Z" transform="translate(0 0)" fill="none"/>
    <g id="그룹_32029" data-name="그룹 32029" transform="translate(-1183.558 1136.597)">
      <path id="패스_13743" data-name="패스 13743" d="M-1076.756,1106.607h-127.576a18.137,18.137,0,0,0-18.215,17.939v35.88a18.131,18.131,0,0,0,18.215,17.939h127.576a18.135,18.135,0,0,0,18.227-17.939v-35.88A18.141,18.141,0,0,0-1076.756,1106.607Zm-109.349,53.819a18.143,18.143,0,0,1-18.227-17.94,18.148,18.148,0,0,1,18.227-17.94,18.141,18.141,0,0,1,18.227,17.94A18.136,18.136,0,0,1-1186.106,1160.427Z" transform="translate(1222.548 -1014.346)" fill="#cfcfcf"/>
      <path id="패스_13744" data-name="패스 13744" d="M-1076.756,1097.607h-127.576a18.137,18.137,0,0,0-18.215,17.939v35.88a18.131,18.131,0,0,0,18.215,17.939h127.576a18.135,18.135,0,0,0,18.227-17.939v-35.88A18.141,18.141,0,0,0-1076.756,1097.607Zm-109.349,53.819a18.143,18.143,0,0,1-18.227-17.94,18.148,18.148,0,0,1,18.227-17.94,18.141,18.141,0,0,1,18.227,17.94A18.136,18.136,0,0,1-1186.106,1151.427Z" transform="translate(1222.548 -1097.607)" fill="#cfcfcf"/>
    </g>
  </g>
</svg>
