<svg xmlns="http://www.w3.org/2000/svg" width="286" height="286" viewBox="0 0 286 286">
  <g id="그룹_32045" data-name="그룹 32045" transform="translate(-1585 -1062)">
    <rect id="사각형_28928" data-name="사각형 28928" width="286" height="286" rx="4" transform="translate(1585 1062)" fill="none"/>
    <g id="그룹_32044" data-name="그룹 32044" transform="translate(2926.548 83.393)">
      <path id="패스_13742" data-name="패스 13742" d="M-1226.548,1093.607h56v56h-56Z" transform="translate(0 0)" fill="none"/>
      <g id="그룹_32029" data-name="그룹 32029" transform="translate(-1217.224 1102.931)">
        <path id="패스_13743" data-name="패스 13743" d="M-1189.347,1106.607H-1218.4a4.13,4.13,0,0,0-4.148,4.085v8.171a4.129,4.129,0,0,0,4.148,4.085h29.053a4.13,4.13,0,0,0,4.151-4.085v-8.171A4.131,4.131,0,0,0-1189.347,1106.607Zm-24.9,12.256a4.132,4.132,0,0,1-4.151-4.086,4.133,4.133,0,0,1,4.151-4.085,4.131,4.131,0,0,1,4.151,4.085A4.13,4.13,0,0,1-1214.249,1118.863Z" transform="translate(1222.548 -1085.597)" fill="#cfcfcf"/>
        <path id="패스_13744" data-name="패스 13744" d="M-1189.347,1097.607H-1218.4a4.13,4.13,0,0,0-4.148,4.085v8.171a4.129,4.129,0,0,0,4.148,4.085h29.053a4.13,4.13,0,0,0,4.151-4.085v-8.171A4.131,4.131,0,0,0-1189.347,1097.607Zm-24.9,12.256a4.132,4.132,0,0,1-4.151-4.085,4.133,4.133,0,0,1,4.151-4.086,4.131,4.131,0,0,1,4.151,4.086A4.13,4.13,0,0,1-1214.249,1109.863Z" transform="translate(1222.548 -1097.607)" fill="#cfcfcf"/>
      </g>
    </g>
  </g>
</svg>
