<svg xmlns="http://www.w3.org/2000/svg" preserveAspectRatio="none" viewBox="0 0 28 28"><g transform="translate(1202.548 -1384.221)"><path d="M-1202.548,1384.221h28v28h-28Z" transform="translate(0)" fill="none"/><path d="M-1183.215,1387.221h-14a2.333,2.333,0,0,0-2.333,2.333v16.333a2.333,2.333,0,0,0,2.333,2.333h16.333a2.34,2.34,0,0,0,2.333-2.333v-14Zm2.333,18.667h-16.333v-16.333h13.032l3.3,3.3Zm-8.167-9.167a3.5,3.5,0,0,0-3.5,3.5,3.5,3.5,0,0,0,3.5,3.5,3.5,3.5,0,0,0,3.5-3.5A3.5,3.5,0,0,0-1189.048,1396.721Zm-6-5h9.5v2.667h-9.5Z" transform="translate(0.5 0.5)" fill="#4e37b2"/></g></svg>