<svg xmlns="http://www.w3.org/2000/svg" preserveAspectRatio="none" viewBox="0 0 24 24"><g transform="translate(1332 21416)"><g transform="translate(-718.001 -22589.367)"><path d="M-614,1173.367h24v24h-24Z" fill="none"/><path d="M-599.409,1175.957a2.006,2.006,0,0,0-1.42-.59H-608a2.006,2.006,0,0,0-2,2v16a2,2,0,0,0,1.99,2H-596a2.006,2.006,0,0,0,2-2V1182.2a1.966,1.966,0,0,0-.59-1.41Zm.41,15.41h-6a1,1,0,0,1-1-1,1,1,0,0,1,1-1h6a1,1,0,0,1,1,1A1,1,0,0,1-599,1191.367Zm0-4h-6a1,1,0,0,1-1-1,1,1,0,0,1,1-1h6a1,1,0,0,1,1,1A1,1,0,0,1-599,1187.367Zm-2-6v-4.5l5.5,5.5H-600A1,1,0,0,1-601,1181.367Z" fill="#858c9e"/></g></g></svg>