<svg xmlns="http://www.w3.org/2000/svg" preserveAspectRatio="none" viewBox="0 0 24 24"><path d="M-1661.939,909.526h24v24h-24Z" transform="translate(1661.939 -909.526)" fill="none"/><g transform="translate(4 4)"><path d="M-1659.939,922.951v2.524a.415.415,0,0,0,.415.415H-1657a.389.389,0,0,0,.29-.125l8.562-8.554a.711.711,0,0,0,0-1.006l-2.107-2.107a.712.712,0,0,0-1.006,0l-8.557,8.555A.424.424,0,0,0-1659.939,922.951Z" transform="translate(1659.939 -910.889)" fill="#858c9e"/><path d="M-1647.074,915.039a.865.865,0,0,0,0-1.226l-2.034-2.034a.866.866,0,0,0-1.226,0l-1.064,1.064a.745.745,0,0,0,0,1.054l2.206,2.206a.745.745,0,0,0,1.053,0Z" transform="translate(1661.821 -911.525)" fill="#858c9e"/></g></svg>