<svg xmlns="http://www.w3.org/2000/svg" xmlns:xlink="http://www.w3.org/1999/xlink" preserveAspectRatio="none"
  viewBox="0 0 18 18">
  <defs>
    <linearGradient id="a" x1="0.23" y1="0.769" x2="1.04" y2="0.937" gradientUnits="objectBoundingBox">
      <stop offset="0" stop-color="#fff" />
      <stop offset="1" stop-color="#d4d4d4" />
    </linearGradient>
  </defs>
  <g transform="translate(-600 -5182)">
    <g transform="translate(-99.581 7.322)">
      <g transform="translate(702.581 5176.679)">
        <path
          d="M-4556.847-1450.9v0a5.235,5.235,0,0,1-1.189-.607,1.257,1.257,0,0,1-.588-1,1.251,1.251,0,0,1,.535-1.035,2.35,2.35,0,0,1,1.458-.407,2.083,2.083,0,0,1,1.446.48,1.575,1.575,0,0,1,.5.916.527.527,0,0,0,.514.439h2.4a.531.531,0,0,0,.525-.6,3.979,3.979,0,0,0-.639-1.722,4.379,4.379,0,0,0-1.9-1.565,6.666,6.666,0,0,0-2.762-.549,7.617,7.617,0,0,0-2.845.5,4.47,4.47,0,0,0-1.957,1.413,3.361,3.361,0,0,0-.692,2.094q0,2.384,2.776,3.747a17.928,17.928,0,0,0,2.2.873,6.646,6.646,0,0,1,1.878.873,1.414,1.414,0,0,1,.535,1.177C-4554.66-1449.821-4556.847-1450.9-4556.847-1450.9Z"
          transform="translate(4562.45 1456.544)" fill="#fff" />
        <path
          d="M-4553.9-1444.458a12.661,12.661,0,0,0-2.433-1.025c-.332-.107-.617-.211-.88-.316l0,0s2.188,1.076,2.188,5.036a1.214,1.214,0,0,1-.5,1.035,2.215,2.215,0,0,1-1.349.368,2.806,2.806,0,0,1-1.928-.545,1.93,1.93,0,0,1-.566-1.229.525.525,0,0,0-.519-.463h-2.4a.53.53,0,0,0-.526.586,4.325,4.325,0,0,0,.68,1.911,4.74,4.74,0,0,0,2.118,1.706,7.691,7.691,0,0,0,3.145.623,6.284,6.284,0,0,0,3.875-1.069,3.487,3.487,0,0,0,1.412-2.943A4.087,4.087,0,0,0-4553.9-1444.458Z"
          transform="translate(4562.815 1451.442)" fill="#fff" />
        <path
          d="M-4561.355-1453.56a3.361,3.361,0,0,0-.692,2.094q0,2.384,2.776,3.748a17.932,17.932,0,0,0,2.2.873,6.646,6.646,0,0,1,1.878.874,1.414,1.414,0,0,1,.535,1.177c0-3.96-2.187-5.036-2.187-5.036v0a5.235,5.235,0,0,1-1.189-.607,1.257,1.257,0,0,1-.588-1,1.211,1.211,0,0,1,.2-.678l-2.184-2.184A3.879,3.879,0,0,0-4561.355-1453.56Z"
          transform="translate(4562.45 1455.478)" fill="url(#a)" />
      </g>
    </g>
    <rect width="18" height="18" transform="translate(600 5182)" fill="none" />
  </g>
</svg>