<svg xmlns="http://www.w3.org/2000/svg" preserveAspectRatio="none" viewBox="0 0 18 18"><g transform="translate(4401 -2380)"><rect width="18" height="18" transform="translate(-4401 2380)" fill="none"/><g transform="translate(-4400 2381)"><path d="M-1428.991,1454.67a.977.977,0,0,1-1.176,0l-5.877-4.479a.959.959,0,0,0-1.165,0,.923.923,0,0,0,0,1.471l6.459,4.929a1.953,1.953,0,0,0,2.351,0l6.46-4.929a.923.923,0,0,0,0-1.471l-.009-.01a.963.963,0,0,0-1.166,0Z" transform="translate(1437.574 -1440.984)" fill="#d4d5d9"/><path d="M-1428.4,1446.48l6.46-4.875a.915.915,0,0,0,0-1.464l-6.46-4.875a1.969,1.969,0,0,0-2.351,0l-6.459,4.884a.916.916,0,0,0,0,1.464l6.459,4.874A1.955,1.955,0,0,0-1428.4,1446.48Z" transform="translate(1437.574 -1434.878)" fill="#d4d5d9"/></g></g></svg>