<svg xmlns="http://www.w3.org/2000/svg" preserveAspectRatio="none" viewBox="0 0 24 24"><rect width="24" height="24" fill="none"/><g transform="translate(4 4)"><path d="M-1643.152,1185.6a.462.462,0,0,1-.469-.457.463.463,0,0,1,.469-.457h1.462a7.626,7.626,0,0,0-2.011-4.727l-1.033,1.006a.476.476,0,0,1-.332.134.474.474,0,0,1-.331-.134.448.448,0,0,1,0-.646l1.033-1.006a8.057,8.057,0,0,0-4.856-1.958v1.422a.463.463,0,0,1-.469.458.463.463,0,0,1-.47-.458v-1.422a8.058,8.058,0,0,0-4.856,1.958l1.033,1.006a.447.447,0,0,1,0,.646.469.469,0,0,1-.331.134.472.472,0,0,1-.332-.134l-1.033-1.006a7.63,7.63,0,0,0-2.011,4.727h1.462a.464.464,0,0,1,.47.457.463.463,0,0,1-.47.457h-1.462a7.587,7.587,0,0,0,1.461,4.055.9.9,0,0,0,.726.353h11.626a.9.9,0,0,0,.726-.353,7.6,7.6,0,0,0,1.462-4.055Zm-3.594-2.676-1.253,1.22a1.887,1.887,0,0,1,.234,1.453,1.945,1.945,0,0,1-1.433,1.414,1.958,1.958,0,0,1-2.41-2.348,1.95,1.95,0,0,1,1.453-1.394,2.035,2.035,0,0,1,1.492.228l1.253-1.22a.479.479,0,0,1,.664,0A.449.449,0,0,1-1646.746,1182.92Z" transform="translate(1657.689 -1177.351)" fill="#858c9e"/><g transform="translate(3.69 14.267)"><rect width="8.618" height="1.732" rx="0.866" fill="#858c9e"/></g></g></svg>