<svg xmlns="http://www.w3.org/2000/svg" preserveAspectRatio="none" viewBox="0 0 24 24"><g transform="translate(1226.548 -1093.607)"><path d="M-1226.548,1093.607h24v24h-24Z" fill="none"/><path d="M-1208.326,1106.607h-12.444a1.77,1.77,0,0,0-1.778,1.75v3.5a1.769,1.769,0,0,0,1.778,1.75h12.444a1.769,1.769,0,0,0,1.778-1.75v-3.5A1.77,1.77,0,0,0-1208.326,1106.607Zm-10.667,5.25a1.769,1.769,0,0,1-1.777-1.75,1.769,1.769,0,0,1,1.777-1.75,1.77,1.77,0,0,1,1.778,1.75A1.769,1.769,0,0,1-1218.993,1111.857Z" fill="#858c9e"/><path d="M-1208.326,1097.607h-12.444a1.77,1.77,0,0,0-1.778,1.75v3.5a1.769,1.769,0,0,0,1.778,1.75h12.444a1.769,1.769,0,0,0,1.778-1.75v-3.5A1.77,1.77,0,0,0-1208.326,1097.607Zm-10.667,5.25a1.769,1.769,0,0,1-1.777-1.75,1.769,1.769,0,0,1,1.777-1.75,1.77,1.77,0,0,1,1.778,1.75A1.769,1.769,0,0,1-1218.993,1102.857Z" fill="#858c9e"/></g></svg>