<svg xmlns="http://www.w3.org/2000/svg" preserveAspectRatio="none" viewBox="0 0 24 24"><g transform="translate(-340 200) rotate(-90)"><g transform="translate(0 -26)"><rect width="24" height="24" transform="translate(176 366)" fill="none"/><g transform="translate(1782 -594.083)"><rect width="6" height="6" rx="1" transform="translate(-1597 963.083)" fill="#858c9e"/><rect width="6" height="6" rx="1" transform="translate(-1597 975.083)" fill="#858c9e"/><path d="M1,1V5H5V1H1M1,0H5A1,1,0,0,1,6,1V5A1,1,0,0,1,5,6H1A1,1,0,0,1,0,5V1A1,1,0,0,1,1,0Z" transform="translate(-1605 975.083)" fill="#858c9e"/><path d="M1,1V5H5V1H1M1,0H5A1,1,0,0,1,6,1V5A1,1,0,0,1,5,6H1A1,1,0,0,1,0,5V1A1,1,0,0,1,1,0Z" transform="translate(-1589 975.083)" fill="#858c9e"/><path d="M.5,10h-1V0h1Z" transform="translate(-1594 967.583)" fill="#858c9e"/><path d="M-1600.5,976.083h-1v-2.9a1.625,1.625,0,0,1,1.643-1.6h13.714a1.625,1.625,0,0,1,1.643,1.6v2.851h-1v-2.851a.625.625,0,0,0-.643-.6h-13.714a.625.625,0,0,0-.643.6Z" transform="translate(-1)" fill="#858c9e"/></g></g></g></svg>