<svg xmlns="http://www.w3.org/2000/svg" width="24" height="24" viewBox="0 0 24 24">
  <g id="그룹_32025" data-name="그룹 32025" transform="translate(1125.212 -1093.607)">
    <path id="패스_13739" data-name="패스 13739" d="M-1125.212,1093.607h24v24h-24Z" fill="none"/>
    <path id="패스_13740" data-name="패스 13740" d="M-1106.754,1101.425l-3.508-3.293a1.918,1.918,0,0,0-1.325-.525h-6.759a1.821,1.821,0,0,0-1.857,1.778l-.009,12.445a1.82,1.82,0,0,0,1.857,1.777h10.276a1.829,1.829,0,0,0,1.867-1.777v-9.152A1.731,1.731,0,0,0-1106.754,1101.425Z" fill="#858c9e"/>
    <path id="패스_13741" data-name="패스 13741" d="M0,1H2V7H0Z" transform="translate(-1114.212 1103.607)" fill="#fff"/>
    <circle id="타원_3822" data-name="타원 3822" cx="1" cy="1" r="1" transform="translate(-1114.212 1101.607)" fill="#fff"/>
  </g>
</svg>
