<svg xmlns="http://www.w3.org/2000/svg" preserveAspectRatio="none" viewBox="0 0 30 30"><g transform="translate(22580 -5587.999)"><g transform="translate(255 -149)"><path d="M84.505,264.684s-1.585.9,1.13,1.243a23.64,23.64,0,0,0,8.828-.453,8.688,8.688,0,0,0,2.264,1.13c-8.262,3.616-18.673-.112-12.222-1.921" transform="translate(-22911.695 5496.873)" fill="#0070b7" fill-rule="evenodd"/><path d="M75.028,229.27s-1.811,1.355,1.02,1.581a32.566,32.566,0,0,0,11.2-.564,5.854,5.854,0,0,0,1.81,1.129c-10.07,2.939-21.162.226-14.032-2.146" transform="translate(-22903.234 5527.655)" fill="#0070b7" fill-rule="evenodd"/><path d="M142.692,88.043c1.217,1.431-.358,2.789-.358,2.789s3.224-1.716,1.719-3.79c-1.36-2-2.434-2.932,3.368-6.366,0,0-9.1,2.289-4.728,7.367" transform="translate(-22962.305 5663.703)" fill="#e32c2d" fill-rule="evenodd"/><path d="M54.518,192.922s-7.695,1.807-2.717,2.372a60.21,60.21,0,0,0,10.185,0c3.168-.338,6.338-.9,6.338-.9a10.965,10.965,0,0,0-1.925,1.018c-7.807,2.034-22.859,1.13-18.557-1.018a14.949,14.949,0,0,1,6.676-1.468" transform="translate(-22879.855 5560.258)" fill="#0070b7" fill-rule="evenodd"/><path d="M207.987,197.312c7.92-4.065,4.187-8.02,1.7-7.456a3.686,3.686,0,0,0-.906.227,1.884,1.884,0,0,1,.68-.566c4.978-1.7,8.941,5.309-1.7,8.022l.227-.227" transform="translate(-23021.645 5563.436)" fill="#0070b7" fill-rule="evenodd"/><path d="M103.6,15.028s2.544,2.54-2.347,6.446c-3.977,3.061-.913,4.882,0,6.9-2.348-2.083-4.043-3.906-2.869-5.6,1.63-2.539,6.26-3.71,5.216-7.748" transform="translate(-22922.875 5724.691)" fill="#e32c2d" fill-rule="evenodd"/></g><g transform="translate(-21379.451 4414.648)"><rect width="30" height="30" transform="translate(-1200.548 1173.351)" fill="none"/></g></g></svg>