<svg xmlns="http://www.w3.org/2000/svg" preserveAspectRatio="none" viewBox="0 0 24 24">
    <g transform="translate(-124 -756)">
        <path d="M49,76H73v24H49Z" transform="translate(75 680)" fill="none" opacity="0.3" style="isolation:isolate" />
        <path
            d="M44.5,89.214V82.828a1.069,1.069,0,0,0-.558-.937l-5.923-3.237a1.083,1.083,0,0,0-1.038,0l-5.923,3.237a1.069,1.069,0,0,0-.558.937v6.386a1.07,1.07,0,0,0,.558.937l5.923,3.237a1.083,1.083,0,0,0,1.038,0l5.923-3.237A1.07,1.07,0,0,0,44.5,89.214Z"
            transform="translate(98.5 679.479)" fill="#858c9e" />
        <path
            d="M37.5,93a1.174,1.174,0,0,1-.992,0L32,90.839V96a.994.994,0,0,0,1.371.778l3.069-1.737a1.166,1.166,0,0,1,1.12,0l3.069,1.737A.994.994,0,0,0,42,96V90.839Z"
            transform="translate(99 681.161)" fill="#858c9e" />
    </g>
</svg>