<svg xmlns="http://www.w3.org/2000/svg" preserveAspectRatio="none" viewBox="0 0 24 24"><g transform="translate(779.876 -1173.279)"><rect width="24" height="24" transform="translate(-779.876 1173.279)" fill="none"/><g transform="translate(1 1)"><g transform="translate(-777.876 1177.279)"><path d="M-761.676,1177.279h-14.4a1.773,1.773,0,0,0-1.791,1.75l-.009,10.5a1.781,1.781,0,0,0,1.8,1.75h14.4a1.781,1.781,0,0,0,1.8-1.75v-10.5A1.781,1.781,0,0,0-761.676,1177.279Zm-.36,3.719-6.363,3.867a.932.932,0,0,1-.954,0l-6.363-3.867a.744.744,0,0,1-.36-.63.765.765,0,0,1,1.17-.63l6.03,3.666,6.03-3.666a.765.765,0,0,1,1.17.63A.744.744,0,0,1-762.036,1181Z" transform="translate(777.876 -1177.279)" fill="#858c9e"/></g></g></g></svg>