<svg xmlns="http://www.w3.org/2000/svg" preserveAspectRatio="none" viewBox="0 0 28 28">
    <g transform="translate(970.303 -1282.927)">
        <path d="M-970.3,1282.927h28v28h-28Z" fill="none" />
        <path
            d="M-948.768,1292.714l-5.259-5.008a2.241,2.241,0,0,0-1.546-.612h-6.719a2.125,2.125,0,0,0-2.167,2.074l-.01,15.518a2.124,2.124,0,0,0,2.166,2.074h11.989a2.134,2.134,0,0,0,2.178-2.074v-10.509A2.024,2.024,0,0,0-948.768,1292.714Zm-5.9,1.639a1.067,1.067,0,0,1-1.089-1.037v-4.667l5.989,5.7Z"
            fill="#1bc5bd" />
    </g>
</svg>