<svg xmlns="http://www.w3.org/2000/svg" preserveAspectRatio="none" viewBox="0 0 24 24"><g transform="translate(-187.457 -40)"><g transform="translate(0 -39)"><rect width="24" height="24" transform="translate(187.457 79)" fill="none" opacity="0.2"/><path d="M-4007.646,2932.563l0-7.175a.848.848,0,0,0-.848-.848h-12.292a.848.848,0,0,0-.848.848v11.127a.849.849,0,0,0,.848.848h8.846" transform="translate(4213.09 -2839.794)" fill="none" stroke="#3699ff" stroke-miterlimit="10" stroke-width="1.5"/><path d="M-4007.646,2925.229h-13.986v-1.907a.611.611,0,0,1,.583-.636h4.079l1.166,1.272h7.575a.61.61,0,0,1,.583.635Z" transform="translate(4213.09 -2839.794)" fill="#3699ff" stroke="#3699ff" stroke-miterlimit="10" stroke-width="1.5"/><path d="M-4012.851,2926.974l-4.2,4.354,2.164.177-1.55,3.423,4.219-4.338-2.185-.161Z" transform="translate(4213.09 -2839.794)" fill="#3699ff" stroke="#3699ff" stroke-linejoin="round" stroke-width="1"/><path d="M-4008.17,2931.865a4.5,4.5,0,0,0-4.5,4.5,4.5,4.5,0,0,0,4.5,4.5,4.5,4.5,0,0,0,4.5-4.5A4.5,4.5,0,0,0-4008.17,2931.865Zm2.016,6.06a.65.65,0,0,1-.6.392.65.65,0,0,1-.258-.053l-1.394-.6a.649.649,0,0,1-.392-.6v-2.135a.65.65,0,0,1,.65-.651.65.65,0,0,1,.65.651v1.709l1,.432A.65.65,0,0,1-4006.154,2937.925Z" transform="translate(4213.09 -2839.794)" fill="#3699ff"/></g></g></svg>