<svg xmlns="http://www.w3.org/2000/svg" preserveAspectRatio="none" viewBox="0 0 24 24"><g transform="translate(1125.212 -1135.449)"><path d="M-1125.212,1135.449h24v24h-24Z" fill="none"/><path d="M-1113.212,1139.449a8,8,0,0,0-8,8,8,8,0,0,0,8,8,8,8,0,0,0,8-8A8,8,0,0,0-1113.212,1139.449Zm-.018,13.252a1.074,1.074,0,0,1-1.073-1.073,1.074,1.074,0,0,1,1.073-1.073,1.075,1.075,0,0,1,1.074,1.073A1.075,1.075,0,0,1-1113.23,1152.7Zm1.682-5.268a1.725,1.725,0,0,0-.771,1.414v.514a.235.235,0,0,1-.235.235h-1.276a.236.236,0,0,1-.236-.235v-.514a3.312,3.312,0,0,1,1.282-2.629,1.715,1.715,0,0,0,.765-1.4c0-.216,0-.874-1.173-.874-1.1,0-1.144.607-1.163.866l-.038.526a.24.24,0,0,1-.083.163.238.238,0,0,1-.175.054l-1.273-.127a.236.236,0,0,1-.211-.252l.037-.5a2.675,2.675,0,0,1,2.918-2.477,3.1,3.1,0,0,1,2.112.7,2.506,2.506,0,0,1,.8,1.928A3.284,3.284,0,0,1-1111.548,1147.433Z" fill="#858c9e"/></g></svg>