<svg xmlns="http://www.w3.org/2000/svg" preserveAspectRatio="none" viewBox="0 0 28 28"><g transform="translate(1144.667 -1384.221)"><rect width="28" height="28" transform="translate(-1144.667 1384.221)" fill="none"/><g transform="translate(-1141.167 1387.721)"><path d="M-1123,1387.221h-16.333a2.34,2.34,0,0,0-2.333,2.333v16.333a2.34,2.34,0,0,0,2.333,2.333H-1123a2.34,2.34,0,0,0,2.333-2.333v-16.333A2.34,2.34,0,0,0-1123,1387.221Zm0,18.667h-16.333v-16.333H-1123Z" transform="translate(1141.667 -1387.221)" fill="#ff7750"/><rect width="17.419" height="2.333" transform="translate(1.735 7)" fill="#ff7750"/><rect width="2.333" height="2.333" rx="1" transform="translate(4.667 3.5)" fill="#ff7750"/><rect width="2.333" height="2.333" rx="1" transform="translate(9.334 3.5)" fill="#ff7750"/></g></g></svg>