<svg xmlns="http://www.w3.org/2000/svg" preserveAspectRatio="none" viewBox="0 0 16 16"><path d="M-1122.185,909.526h16v16h-16Z" transform="translate(1122.185 -909.526)" fill="none"/><path d="M-1110.418,913.76a5.3,5.3,0,0,0-4.32-1.54,5.354,5.354,0,0,0-4.733,4.68,5.323,5.323,0,0,0,5.286,5.96,5.32,5.32,0,0,0,4.807-3.04.668.668,0,0,0-.6-.96.649.649,0,0,0-.587.353,4,4,0,0,1-4.533,2.207,3.968,3.968,0,0,1-2.987-3.014,4,4,0,0,1,3.9-4.88,3.943,3.943,0,0,1,2.814,1.187l-1.007,1.007a.667.667,0,0,0,.467,1.14h2.393a.669.669,0,0,0,.667-.667V913.8a.669.669,0,0,0-1.14-.474Z" transform="translate(1122.185 -909.526)" fill="#858c9e"/></svg>