<svg xmlns="http://www.w3.org/2000/svg" preserveAspectRatio="none" viewBox="0 0 24 24"><g transform="translate(-134 -40)"><g transform="translate(-25)"><g transform="translate(13 -30)"><g transform="translate(4225.635 -2848.794)"><rect width="24" height="24" transform="translate(-4055.635 2942.794) rotate(180)" fill="none" opacity="0.2"/><path d="M-4064.935,2926.64h-9.7a1.5,1.5,0,0,0-1.5,1.5v9.7a1.5,1.5,0,0,0,1.5,1.5h9.7a1.5,1.5,0,0,0,1.5-1.5v-9.7A1.5,1.5,0,0,0-4064.935,2926.64Zm-2.029,8.5a.749.749,0,0,1-.688.452.747.747,0,0,1-.3-.062l-2.266-.98a.751.751,0,0,1-.452-.689v-3.551a.75.75,0,0,1,.75-.75.75.75,0,0,1,.75.75v3.059l1.814.784A.75.75,0,0,1-4066.964,2935.139Z" fill="#be3cf5"/><path d="M-4071.132,2923.706v3.8h5.277a1.5,1.5,0,0,1,1.5,1.5v6.758h3.8a1.5,1.5,0,0,0,1.5-1.5v-7.116a1.5,1.5,0,0,0-.369-.985l-2.992-3.438a1.5,1.5,0,0,0-1.132-.515h-6.085A1.5,1.5,0,0,0-4071.132,2923.706Z" fill="none" stroke="#be3cf5" stroke-linecap="round" stroke-linejoin="round" stroke-width="1.5"/></g></g></g></g></svg>