<svg xmlns="http://www.w3.org/2000/svg" width="16" height="16" viewBox="0 0 16 16"><g transform="translate(1559.186 -909.526)"><path d="M-1559.186,909.526h16v16h-16Z" fill="none"/><path d="M-1546.519,911.526h-9.34a1.318,1.318,0,0,0-1.32,1.334l-.007,9.333a1.328,1.328,0,0,0,1.327,1.333h9.34a1.337,1.337,0,0,0,1.333-1.333V912.86A1.333,1.333,0,0,0-1546.519,911.526Zm0,8h-2.087a.694.694,0,0,0-.653.534,2,2,0,0,1-1.927,1.466,2,2,0,0,1-1.926-1.466.694.694,0,0,0-.654-.534h-2.086v-6a.668.668,0,0,1,.666-.666h8a.669.669,0,0,1,.667.666Z" fill="#858c9e"/></g></svg>