<svg xmlns="http://www.w3.org/2000/svg" preserveAspectRatio="none" viewBox="0 0 24 24"><g transform="translate(1332 21194)"><g transform="translate(-1366 -21593)"><g transform="translate(895.612 -774.22)"><rect width="24" height="24" transform="translate(-861.612 1173.22)" fill="none"/><path d="M-844.612,1186.22a4,4,0,0,0-4,4,4,4,0,0,0,4,4,4,4,0,0,0,4-4A4,4,0,0,0-844.612,1186.22Zm0,1.38a1.125,1.125,0,0,1,1.12,1.12,1.131,1.131,0,0,1-1.12,1.12,1.131,1.131,0,0,1-1.12-1.12A1.125,1.125,0,0,1-844.612,1187.6Zm0,5.37a2.725,2.725,0,0,1-2.24-1.17c.05-.72,1.51-1.08,2.24-1.08s2.19.36,2.24,1.08A2.725,2.725,0,0,1-844.612,1192.97Z" fill="#858c9e"/><path d="M-844.612,1184.194c.035,0,.068,0,.1.005a.967.967,0,0,0,.9-.954v-3.1a1,1,0,0,0-.6-.917l-6.5-2.834a1,1,0,0,0-.8,0l-6.5,2.834a1,1,0,0,0-.6.917v4.255a10.213,10.213,0,0,0,7.5,9.82c.14-.033.277-.069.414-.11a.975.975,0,0,0,.675-.743,6.15,6.15,0,0,1-.772-2.99A6.183,6.183,0,0,1-844.612,1184.194Z" fill="#858c9e"/></g></g></g></svg>