<svg xmlns="http://www.w3.org/2000/svg" xmlns:xlink="http://www.w3.org/1999/xlink" preserveAspectRatio="none" viewBox="0 0 56 56"><defs><linearGradient id="a" x1="0.594" y1="0.726" x2="0.315" y2="0.033" gradientUnits="objectBoundingBox"><stop offset="0" stop-opacity="0"/><stop offset="1" stop-opacity="0.6"/></linearGradient></defs><g transform="translate(-2740 -189)"><rect width="56" height="56" transform="translate(2740 189)" fill="none"/><g transform="translate(2746 204)"><path d="M-5931.248,2229.112l-11.238,23.959a.921.921,0,0,1-.834.531h-9.359a3.071,3.071,0,0,1-3.072-3.073l.879-7.644,2.225-14.307a.922.922,0,0,1,.912-.78h4.869a1.177,1.177,0,0,1,.746.628l-3.32,17.559s-.406,2.358,1.5,2.358l9.385-20.015a.925.925,0,0,1,.834-.531h5.633A.924.924,0,0,1-5931.248,2229.112Z" transform="translate(5974.61 -2227.798)" fill="#fff"/><path d="M-5949.439,2245.986l3.318-17.559a1.177,1.177,0,0,0-.746-.628h-4.869a.922.922,0,0,0-.912.78l-2.225,14.307-.879,7.644a3.04,3.04,0,0,0,.24,1.193l6.3-4.065A2.961,2.961,0,0,1-5949.439,2245.986Z" transform="translate(5974.61 -2227.798)" opacity="0.15" fill="url(#a)"/><path d="M-5959.394,2253.6h8.563a.919.919,0,0,0,.773-.418l15.936-24.437c.518-.792-.479-.948-.514-.948h-4.982a.919.919,0,0,0-.779.432l-12.59,20.114a1.678,1.678,0,0,1-1.348-2.618l7.477-16.628a.92.92,0,0,0-.838-1.3h-5.611a.932.932,0,0,0-.863.589l-8.094,21.038A3.075,3.075,0,0,0-5959.394,2253.6Z" transform="translate(5962.471 -2227.798)" fill="#fff"/></g></g></svg>