<svg xmlns="http://www.w3.org/2000/svg" xmlns:xlink="http://www.w3.org/1999/xlink" preserveAspectRatio="none" viewBox="0 0 56 56"><defs><linearGradient id="a" x1="0.383" y1="0.448" x2="1.288" y2="0.687" gradientUnits="objectBoundingBox"><stop offset="0" stop-opacity="0"/><stop offset="1"/></linearGradient></defs><g transform="translate(-2740 -57)"><rect width="56" height="56" transform="translate(2740 57)" fill="none"/><g transform="translate(7.538 64.528)"><g transform="translate(2736.462 7.472)"><path d="M-5876.2,2229.44a1.355,1.355,0,0,0-.16-.122,4.93,4.93,0,0,0-.68-.36,9.335,9.335,0,0,0-1.938-.638,15.7,15.7,0,0,0-2.056-.289c-.355-.032-.711-.053-1.065-.07-2.147-.1-4.3-.087-6.45-.07a1.614,1.614,0,0,0-.647.1,1.641,1.641,0,0,0-.69.863q-2.714,5.786-5.428,11.568c-.486,1.039-.961,2.1-1.363,3.176l-.019-.017-2.055,4.414a3.99,3.99,0,0,0,3.617,5.679h7.159l-.042-.053a18.849,18.849,0,0,0,9.464-2.476,5.435,5.435,0,0,1-1.585-4.021,10.426,10.426,0,0,1,1.107-4.273c-1.241,2.163-2.846,4.327-5.194,5.165a10.646,10.646,0,0,1-3.659.458c-.829,0-1.658-.036-2.486-.073a1.769,1.769,0,0,1-1.418-.507c-.367-.5-.111-1.2.154-1.764q2.755-5.886,5.517-11.773a2.363,2.363,0,0,1,.612-.906,2.356,2.356,0,0,1,1.506-.317l2.41.034c.966.013,2.085.106,2.622.906.209.312.518.776.827.56a.555.555,0,0,0,.173-.248c.329-.714.648-1.436.961-2.154s.627-1.44.91-2.172A.49.49,0,0,0-5876.2,2229.44Z" transform="translate(5899.128 -2227.877)" fill="#fff"/><path d="M-5898.749,2238.337a3.992,3.992,0,0,0,3.617,5.682h6.012c.055,0,.092.009.145.009l.415-.009h.588l-.011-.016.377-.008a18.345,18.345,0,0,0,9.057-2.512,5.919,5.919,0,0,1-.573-.6,5.878,5.878,0,0,1-1.009-3.384,10.014,10.014,0,0,1,1.025-4.142l.078-.16a15.984,15.984,0,0,1-.975,1.61,11.194,11.194,0,0,1-2.836,2.852,6.025,6.025,0,0,1-3.49,1.117h-4.039a1.755,1.755,0,0,1-1.223-.34,1.12,1.12,0,0,1-.359-.846,2.3,2.3,0,0,1,.271-1.026l.2-.426h-6.242Z" transform="translate(5899.128 -2218.236)" opacity="0.15" fill="url(#a)"/><path d="M-5876.855,2253.672a11.078,11.078,0,0,0,5.292-1.2,8.971,8.971,0,0,0,3.494-3.241,8.746,8.746,0,0,0,1.255-4.591,5.781,5.781,0,0,0-.952-3.273,10.756,10.756,0,0,0,3.764-2.988,6.389,6.389,0,0,0,1.366-4,5.8,5.8,0,0,0-1.006-3.367,6.688,6.688,0,0,0-3.017-2.3,13.211,13.211,0,0,0-5.049-.835h-10.622a.928.928,0,0,0-.837.532l-9.7,20.893a3.072,3.072,0,0,0,2.784,4.366Zm7.111-18.322-.27.557a3.583,3.583,0,0,1-3.675,2.213h-3.018a.619.619,0,0,0-.559.354l-1.889,4.026a.616.616,0,0,0,.556.878h3.615a1.916,1.916,0,0,1,1.242.332.928.928,0,0,1,.4.614c.006.186.008.3.008.348a2.3,2.3,0,0,1-.213.938l-.271.576a3.629,3.629,0,0,1-1.7,1.755,5.013,5.013,0,0,1-2.081.476h-4.964a1.745,1.745,0,0,1-1.2-.333,1.08,1.08,0,0,1-.361-.837,2.608,2.608,0,0,1,.25-1.062l1.333-2.807,2.484-5.258,2.026-4.3a1.226,1.226,0,0,1,1.11-.7h5.86a1.581,1.581,0,0,1,1.088.333,1.1,1.1,0,0,1,.405.63c.021.2.033.326.033.388A2.107,2.107,0,0,1-5869.744,2235.351Z" transform="translate(5909.961 -2227.869)" fill="#fff"/></g></g></g></svg>