<svg xmlns="http://www.w3.org/2000/svg" xmlns:xlink="http://www.w3.org/1999/xlink" preserveAspectRatio="none" viewBox="0 0 56 56"><defs><radialGradient id="a" cx="-1.173" cy="0.849" r="1.432" gradientTransform="translate(0.339 -0.042) scale(1.442 1.05)" gradientUnits="objectBoundingBox"><stop offset="0.552" stop-opacity="0.6"/><stop offset="1" stop-opacity="0"/></radialGradient></defs><g transform="translate(-2740 -344)"><rect width="56" height="56" transform="translate(2740 344)" fill="none"/><g transform="translate(2745 359)"><path d="M-5836.576,2227.72h-9.043c-.989,0-2.072.057-3.258.168a21.59,21.59,0,0,0-3.53.636,12.459,12.459,0,0,0-3.231,1.351,7.028,7.028,0,0,0-2.373,2.314,6.5,6.5,0,0,0-.9,3.531,4.093,4.093,0,0,0,1,2.615,11.866,11.866,0,0,0,2.557,2.3,27.181,27.181,0,0,0,3.3,1.936c.642.351,1.263.694,1.87,1.024q1.228.652,2.228,1.228a12.513,12.513,0,0,1,1.609,1.06q.6.482.6.892a.783.783,0,0,1-.378.687,2.448,2.448,0,0,1-.857.346,4.115,4.115,0,0,1-.784.1h-6.359a.739.739,0,0,0-.6.3c-.192.257-.394.508-.595.754-.283.349-.58.69-.882,1.02-.349.381-.709.752-1.087,1.1a11.806,11.806,0,0,1-1.206.993c-.158.113-.318.219-.483.318-.082.049-.159.095-.245.141-.115.062-.275.122-.28.287,0,.146.176.184.28.2a1.458,1.458,0,0,0,.192.011h6.588q1.462,0,3.246-.16a20.832,20.832,0,0,0,3.542-.626,12.133,12.133,0,0,0,3.223-1.36,7.134,7.134,0,0,0,2.361-2.312,6.494,6.494,0,0,0,.9-3.542,4.175,4.175,0,0,0-1-2.623,12.066,12.066,0,0,0-2.559-2.358,24.838,24.838,0,0,0-3.308-1.96q-1.109-.619-2.17-1.167-1.16-.6-2.084-1.13a11.063,11.063,0,0,1-1.48-.979c-.373-.3-.555-.573-.555-.822a.79.79,0,0,1,.377-.706,2.438,2.438,0,0,1,.858-.346,4.106,4.106,0,0,1,.783-.1h12.145a.775.775,0,0,0,.7-.462l1.575-3.5A.81.81,0,0,0-5836.576,2227.72Z" transform="translate(5880.472 -2227.455)" fill="#fff"/><path d="M-5848.936,2231.4a20.4,20.4,0,0,0-1.137-2.531c-.187-.346-.444-.659-.657-.992a20.994,20.994,0,0,0-2.14.386,12.473,12.473,0,0,0-3.232,1.348,7.041,7.041,0,0,0-2.371,2.315,5.876,5.876,0,0,0-.753,2.265,11.845,11.845,0,0,1,.187,2.068c0,.206-.021.422-.032.63a4.781,4.781,0,0,0,.7,1.181,12.05,12.05,0,0,0,2.559,2.306,26.883,26.883,0,0,0,3.307,1.933c.642.354,1.263.695,1.87,1.025q1.182.633,2.154,1.187a24,24,0,0,0,.8-5.975c0-.451-.049-.937-.083-1.409-.3-.16-.6-.33-.892-.479q-1.165-.6-2.086-1.131a11.3,11.3,0,0,1-1.482-.981q-.554-.45-.554-.822a.8.8,0,0,1,.376-.706,2.506,2.506,0,0,1,.861-.344,4.122,4.122,0,0,1,.78-.1h2.139a1.479,1.479,0,0,1-.4-.836A1.513,1.513,0,0,1-5848.936,2231.4Z" transform="translate(5880.928 -2227.196)" opacity="0.15" fill="url(#a)"/><path d="M-5867.252,2243.041a14.175,14.175,0,0,1,1.179-5.616,16.1,16.1,0,0,1,3.323-4.955,16.526,16.526,0,0,1,5.073-3.523,15.393,15.393,0,0,1,6.429-1.324,13.175,13.175,0,0,1,4.475.678,9.5,9.5,0,0,1,3.112,1.8,9.057,9.057,0,0,1,1.969,2.463,10.506,10.506,0,0,1,1.026,2.755,12.5,12.5,0,0,1,.3,2.622,14.409,14.409,0,0,1-1.209,5.819,16.122,16.122,0,0,1-3.375,4.956,16.284,16.284,0,0,1-5.081,3.444,15.7,15.7,0,0,1-6.335,1.271,13.26,13.26,0,0,1-4.434-.662A9.342,9.342,0,0,1-5863.9,2251a9.13,9.13,0,0,1-1.986-2.466,10.4,10.4,0,0,1-1.048-2.79A12.7,12.7,0,0,1-5867.252,2243.041Zm14.791-10.263a5.39,5.39,0,0,0-3.3,1.149,11.328,11.328,0,0,0-2.692,2.941,16.572,16.572,0,0,0-1.824,3.8,11.918,11.918,0,0,0-.665,3.736,6.021,6.021,0,0,0,.309,2,2.9,2.9,0,0,0,.978,1.388,2.783,2.783,0,0,0,1.724.5h2.762a5.421,5.421,0,0,0,3.3-1.148,11.311,11.311,0,0,0,2.7-2.931,16.128,16.128,0,0,0,1.822-3.8,12.018,12.018,0,0,0,.665-3.745,5.779,5.779,0,0,0-.316-1.987,3,3,0,0,0-.985-1.387,2.752,2.752,0,0,0-1.725-.513Z" transform="translate(5867.252 -2227.622)" fill="#fff"/></g></g></svg>