<svg xmlns="http://www.w3.org/2000/svg" xmlns:xlink="http://www.w3.org/1999/xlink" preserveAspectRatio="none" viewBox="0 0 56 56"><defs><linearGradient id="a" x1="0.437" y1="0.5" x2="1.037" y2="0.5" gradientUnits="objectBoundingBox"><stop offset="0" stop-opacity="0"/><stop offset="1" stop-opacity="0.6"/></linearGradient></defs><g transform="translate(-1581 -189)"><rect width="56" height="56" transform="translate(1581 189)" fill="none"/><g transform="translate(1587 204)"><path d="M-5907.6,2227.862h-6.224a18,18,0,0,0-5.877.918,17.044,17.044,0,0,0-4.743,2.475,16.041,16.041,0,0,0-3.493,3.557,15.883,15.883,0,0,0-2.163,4.2,13.706,13.706,0,0,0-.739,4.37,11.027,11.027,0,0,0,.693,3.906,9.054,9.054,0,0,0,2.134,3.289,10.1,10.1,0,0,0,3.665,2.257,15.043,15.043,0,0,0,5.266.829h4.824l2.468-5.257h-8.949a3.164,3.164,0,0,1-1.872-.514,3.019,3.019,0,0,1-1.064-1.413,5.776,5.776,0,0,1-.338-2.036,11.246,11.246,0,0,1,.681-3.665,15.029,15.029,0,0,1,1.9-3.709,11.2,11.2,0,0,1,2.827-2.856,5.983,5.983,0,0,1,3.484-1.115l5.23-.018a.6.6,0,0,0,.538-.325l2.22-4.179h0C-5906.738,2227.858-5907.6,2227.862-5907.6,2227.862Z" transform="translate(5930.833 -2227.862)" fill="#fff"/><path d="M-5921.537,2235.177h-8.85a9.109,9.109,0,0,0,1.573,2.171,10.152,10.152,0,0,0,3.664,2.261,15.077,15.077,0,0,0,5.267.828h7.292v-5.26Z" transform="translate(5931.642 -2214.633)" opacity="0.15" fill="url(#a)"/><path d="M-5920.434,2231.705l.555-1.168c-.044.087-.067.149-.067.149Z" transform="translate(5949.64 -2223.022)" fill="#ff2e74"/><path d="M-5918.758,2229.736l3.127,0h-3.1Z" transform="translate(5952.672 -2224.477)" fill="#ff2e74"/><path d="M-5906.337,2245.58l-2.291,7.287a.617.617,0,0,0,.588.8h4.593a.615.615,0,0,0,.589-.438l7.236-24.181a.918.918,0,0,0-.882-1.184h-13.418a4.6,4.6,0,0,0-4.094,2.493l-12.042,23.311h7.281a.61.61,0,0,0,.555-.352l8.75-18.435a3.07,3.07,0,0,1,2.771-1.759l4.27,0-2.271,7.2Z" transform="translate(5939.471 -2227.862)" fill="#fff"/><path d="M-5920.186,2237.558h5.989V2232.3h-4.1a.616.616,0,0,0-.557.354l-1.889,4.029A.615.615,0,0,0-5920.186,2237.558Z" transform="translate(5948.97 -2219.839)" fill="#fff"/></g></g></svg>