<svg xmlns="http://www.w3.org/2000/svg" preserveAspectRatio="none" viewBox="0 0 24 24"><g transform="translate(1507.082 -1135.083)"><path d="M-1507.082,1135.083h24v24h-24Z" fill="none"/><g transform="translate(0 -2)"><path d="M3540.719,13286.082c-.443,0-.8-.18-.8-.4v-1.667l-6.279-5.458a.528.528,0,0,1-.074-.08h-4.848a.8.8,0,0,1-.8-.8v-4.794a.8.8,0,0,1,.8-.8h10.4a.8.8,0,0,1,.8.8v4.794a.8.8,0,0,1-.8.8h-4.047l4.847,4.213v-1.209c0-.223.357-.4.8-.4h4.4c.443,0,.8.177.8.4v4.2c0,.221-.357.4-.8.4Z" transform="translate(-5032 -12129.998)" fill="#858c9e" stroke="rgba(0,0,0,0)" stroke-miterlimit="10" stroke-width="1"/></g></g></svg>