<svg xmlns="http://www.w3.org/2000/svg" preserveAspectRatio="none" viewBox="0 0 24 24"><g transform="translate(1321.284 -1135.449)"><rect width="24" height="24" transform="translate(-1321.284 1135.449)" fill="none"/><g transform="translate(171.06 161.48)"><path d="M-1657.344,538.969h-10a1,1,0,0,1-1-1v-14a1,1,0,0,1,1-1h10a1,1,0,0,1,1,1v14A1,1,0,0,1-1657.344,538.969Zm-2.5-13a.5.5,0,0,0-.5.5v4.586a1.5,1.5,0,0,0-1,1.415,1.5,1.5,0,0,0,1,1.415v1.585a.5.5,0,0,0,.5.5.5.5,0,0,0,.5-.5v-1.585a1.5,1.5,0,0,0,1-1.415,1.5,1.5,0,0,0-1-1.415v-4.586A.5.5,0,0,0-1659.844,525.969Zm-5,0a.5.5,0,0,0-.5.5v1.586a1.5,1.5,0,0,0-1,1.415,1.5,1.5,0,0,0,1,1.414v4.586a.5.5,0,0,0,.5.5.5.5,0,0,0,.5-.5v-4.586a1.5,1.5,0,0,0,1-1.414,1.5,1.5,0,0,0-1-1.415v-1.586A.5.5,0,0,0-1664.843,525.969Z" transform="translate(186 455)" fill="#858c9e" stroke="rgba(0,0,0,0)" stroke-miterlimit="10" stroke-width="1"/><path d="M-1483.187,990.069a2.162,2.162,0,0,1-2.215-2.1,2.162,2.162,0,0,1,2.215-2.1,2.3,2.3,0,0,1,.843.16v-4.06h-2.108a.3.3,0,0,0-.31.252l-.241,1.59a4.958,4.958,0,0,0-1.07.588l-1.575-.6a.317.317,0,0,0-.386.132l-1.266,2.076a.286.286,0,0,0,.076.384l1.335.99a4.589,4.589,0,0,0-.044.588,4.589,4.589,0,0,0,.044.588l-1.335.99a.293.293,0,0,0-.076.384l1.266,2.076a.327.327,0,0,0,.386.132l1.575-.6a4.715,4.715,0,0,0,1.07.588l.241,1.59a.3.3,0,0,0,.31.252h2.108v-4.06A2.3,2.3,0,0,1-1483.187,990.069Z" transform="translate(-1)" fill="#858c9e"/></g></g></svg>