<svg xmlns="http://www.w3.org/2000/svg" preserveAspectRatio="none" viewBox="0 0 31 30"><g transform="translate(-2117 -380)"><path d="M-1148.332,1398.888h-1.167v-2.333h1.167a1.17,1.17,0,0,0,1.167-1.167,1.17,1.17,0,0,0-1.167-1.167h-1.167v-3.333a2.34,2.34,0,0,0-2.333-2.333h-3.333v-1.167a1.17,1.17,0,0,0-1.167-1.167,1.17,1.17,0,0,0-1.167,1.167v1.167h-2.333v-1.167a1.17,1.17,0,0,0-1.167-1.167,1.17,1.17,0,0,0-1.167,1.167v1.167h-3.333a2.34,2.34,0,0,0-2.333,2.333v3.333H-1169a1.17,1.17,0,0,0-1.167,1.167,1.17,1.17,0,0,0,1.167,1.167h1.167v2.333H-1169a1.17,1.17,0,0,0-1.167,1.167,1.17,1.17,0,0,0,1.167,1.167h1.167v3.333a2.34,2.34,0,0,0,2.333,2.333h3.333v1.167a1.17,1.17,0,0,0,1.167,1.167,1.17,1.17,0,0,0,1.167-1.167v-1.167h2.333v1.167a1.17,1.17,0,0,0,1.167,1.167,1.17,1.17,0,0,0,1.167-1.167v-1.167h3.333a2.34,2.34,0,0,0,2.333-2.333v-3.333h1.167a1.17,1.17,0,0,0,1.167-1.167A1.17,1.17,0,0,0-1148.332,1398.888Zm-3.5,4.5a1.17,1.17,0,0,1-1.167,1.167h-11.333a1.17,1.17,0,0,1-1.167-1.167v-11.333a1.17,1.17,0,0,1,1.167-1.167H-1153a1.17,1.17,0,0,1,1.167,1.167Z" transform="translate(3287.165 -1006.221)" fill="#4e37b2"/><rect width="7" height="7" rx="1" transform="translate(2125 388)" fill="#4e37b2"/><g transform="translate(0 -1)"><rect width="17" height="17" transform="translate(2129 393)" fill="#eceaf6"/><path d="M-1123,1387.221h-15.333a2.34,2.34,0,0,0-2.333,2.333v14.333a2.34,2.34,0,0,0,2.333,2.333H-1123a2.34,2.34,0,0,0,2.333-2.333v-14.333A2.34,2.34,0,0,0-1123,1387.221Zm0,16.667h-15.333v-14.333H-1123Z" transform="translate(3268.667 -995.221)" fill="#ff7750"/><rect width="17.419" height="2.333" transform="translate(2128.735 399)" fill="#ff7750"/><rect width="2.333" height="2.333" rx="1" transform="translate(2132.667 395.5)" fill="#ff7750"/><rect width="2.333" height="2.333" rx="1" transform="translate(2137.333 395.5)" fill="#ff7750"/></g></g></svg>