<svg xmlns="http://www.w3.org/2000/svg" preserveAspectRatio="none" viewBox="0 0 24 24"><g transform="translate(4137.089 -2918.802)"><rect width="24" height="24" transform="translate(-4137.089 2918.802)" fill="none" opacity="0.2"/><path d="M-4133.089,2930.809a8,8,0,0,1,8-8l-1.246-1.246,0,1.343" fill="none" stroke="#91c83c" stroke-linecap="round" stroke-linejoin="round" stroke-width="1.5"/><path d="M-4117.089,2930.795a8,8,0,0,1-8,8l1.245,1.245-.039-1.336" fill="none" stroke="#3699ff" stroke-linecap="round" stroke-linejoin="round" stroke-width="1.5"/><path d="M-4119.111,2930.3a6,6,0,0,0-6.488-5.468,6,6,0,0,0-5.468,6.487,6,6,0,0,0,6.487,5.469A6,6,0,0,0-4119.111,2930.3Zm-3.557,2.465a.751.751,0,0,1-.689.452.738.738,0,0,1-.3-.062l-1.733-.749a.75.75,0,0,1-.452-.688v-3.156a.75.75,0,0,1,.75-.75.75.75,0,0,1,.75.75v2.663l1.279.553A.751.751,0,0,1-4122.668,2932.764Z" fill="#fab719"/></g></svg>