<svg xmlns="http://www.w3.org/2000/svg" preserveAspectRatio="none" viewBox="0 0 24 24"><path d="M-1061.342,1175.927h24v24h-24Z" transform="translate(1061.342 -1175.927)" fill="none" opacity="0.3"/><g transform="translate(5 4)"><path d="M1.857,0h8.286A.857.857,0,0,1,11,.857V11.143a.857.857,0,0,1-.857.857H1.857A.857.857,0,0,1,1,11.143V.857A.857.857,0,0,1,1.857,0Z" transform="translate(1 4)" /><path d="M-1043.261,1179.927h-1.452a.953.953,0,0,1-.649-.251l-.533-.5a.95.95,0,0,0-.65-.251h-5.6a.953.953,0,0,0-.649.251l-.534.5a.948.948,0,0,1-.649.251h-1.451a.889.889,0,0,0-.918.857v.286a.89.89,0,0,0,.918.857h12.163a.889.889,0,0,0,.918-.857v-.286A.889.889,0,0,0-1043.261,1179.927Z" transform="translate(1056.342 -1178.927)" /></g></svg>