<svg xmlns="http://www.w3.org/2000/svg" preserveAspectRatio="none" viewBox="0 0 16 16"><g transform="translate(-870 -867.001)"><g transform="translate(2122.092 -43.525)"><rect width="5" height="1" transform="translate(-1243.092 922.525)" fill="#fff"/><rect width="5" height="1" transform="translate(-1240.092 920.525) rotate(90)" fill="#fff"/></g><path d="M-1253.092,909.526h16v16h-16Z" transform="translate(2123.092 -42.525)" fill="none"/><path d="M-1632-1128h-4.429a.572.572,0,0,1-.572-.571v-7.857a.572.572,0,0,1,.572-.572h7.857a.572.572,0,0,1,.572.572V-1132h-2v2h-2v2Z" transform="translate(2510 2008)" fill="#fff" stroke="rgba(0,0,0,0)" stroke-miterlimit="10" stroke-width="1"/><path d="M-1241.31,912.193h-1.471a.541.541,0,0,1-.39-.167l-.32-.332a.539.539,0,0,0-.39-.168h-2.758a.538.538,0,0,0-.39.168l-.32.332a.542.542,0,0,1-.39.167h-1.471a.562.562,0,0,0-.551.571v.191a.562.562,0,0,0,.551.571h7.9a.561.561,0,0,0,.551-.571v-.191A.561.561,0,0,0-1241.31,912.193Z" transform="translate(2122.759 -43.525)" fill="#fff"/></g></svg>