<svg xmlns="http://www.w3.org/2000/svg" preserveAspectRatio="none" viewBox="0 0 16 16"><g transform="translate(1253.092 -909.526)"><path d="M-1253.092,909.526h16v16h-16Z" fill="none"/><rect width="8" height="9.333" rx="0.571" transform="translate(-1249.092 914.193)" fill="#fff"/><path d="M-1241,912.193h-1.525a.571.571,0,0,1-.4-.167l-.332-.332a.569.569,0,0,0-.4-.168h-2.86a.568.568,0,0,0-.4.168l-.332.332a.572.572,0,0,1-.4.167h-1.526a.571.571,0,0,0-.571.571v.191a.571.571,0,0,0,.571.571H-1241a.571.571,0,0,0,.571-.571v-.191A.571.571,0,0,0-1241,912.193Z" fill="#fff"/></g></svg>