<svg xmlns="http://www.w3.org/2000/svg" preserveAspectRatio="none" viewBox="0 0 24 24"><g transform="translate(1332 21308)"><g transform="translate(-470.389 -22443.084)"><rect width="24" height="24" transform="translate(-861.612 1135.083)" fill="none"/><path d="M-850.462,1138.483l-3.72,6.08a1,1,0,0,0,.85,1.52h7.43a1,1,0,0,0,.85-1.52l-3.71-6.07A1,1,0,0,0-850.462,1138.483Z" fill="#858c9e"/><circle cx="4.5" cy="4.5" r="4.5" transform="translate(-848.612 1148.083)" fill="#858c9e"/><path d="M-857.612,1156.583h6a1,1,0,0,0,1-1v-6a1,1,0,0,0-1-1h-6a1,1,0,0,0-1,1v6A1,1,0,0,0-857.612,1156.583Z" fill="#858c9e"/></g></g></svg>