<svg xmlns="http://www.w3.org/2000/svg" preserveAspectRatio="none" viewBox="0 0 24 24"><g transform="translate(1332 21230)"><g transform="translate(-509.088 -22403.221)"><rect width="24" height="24" transform="translate(-822.912 1173.22)" fill="none"/><path d="M-812.272,1188.39v0Z"/><path d="M-800.912,1192.22v-.41a1.972,1.972,0,0,0-1.19-1.83,9.85,9.85,0,0,0-3.81-.76,9.85,9.85,0,0,0-3.81.76,1.972,1.972,0,0,0-1.19,1.83v.41a1,1,0,0,0,1,1h8A1,1,0,0,0-800.912,1192.22Z" fill="#858c9e"/><path d="M-812.912,1177.22a4,4,0,0,0-4,4,4,4,0,0,0,4,4,4,4,0,0,0,4-4A4,4,0,0,0-812.912,1177.22Z" fill="#858c9e"/><path d="M-809.912,1186.62a13.635,13.635,0,0,0-3-.4c-2.67,0-8,1.34-8,4v2a1,1,0,0,0,1,1h7v-1.41a4.012,4.012,0,0,1,3-3.88Z" fill="#858c9e"/><circle cx="2.5" cy="2.5" r="2.5" transform="translate(-808.412 1183.22)" fill="#858c9e"/></g></g></svg>