<svg xmlns="http://www.w3.org/2000/svg" preserveAspectRatio="none" viewBox="0 0 24 24"><g transform="translate(1321.284 -1135.449)"><rect width="24" height="24" transform="translate(-1321.284 1135.449)" fill="none"/><g transform="translate(0)"><path d="M-1311.062,1139.449h-5.333a.889.889,0,0,0-.889.889v14.222a.889.889,0,0,0,.889.889h5.333a.889.889,0,0,0,.889-.889v-14.222A.889.889,0,0,0-1311.062,1139.449Zm-2.666,13.347a.969.969,0,0,1-.97-.969.97.97,0,0,1,.97-.97.969.969,0,0,1,.969.97A.969.969,0,0,1-1313.728,1152.8Zm1.333-7.33h-2.666a.445.445,0,0,1-.445-.445.444.444,0,0,1,.445-.444h2.666a.444.444,0,0,1,.445.444A.445.445,0,0,1-1312.4,1145.466Zm0-2.667h-2.666a.445.445,0,0,1-.445-.445.444.444,0,0,1,.445-.444h2.666a.445.445,0,0,1,.445.444A.445.445,0,0,1-1312.4,1142.8Z" fill="#858c9e"/><path d="M-1302.173,1139.449h-5.333a.889.889,0,0,0-.889.889v14.222a.889.889,0,0,0,.889.889h5.333a.889.889,0,0,0,.889-.889v-14.222A.889.889,0,0,0-1302.173,1139.449Zm-2.666,13.347a.969.969,0,0,1-.97-.969.97.97,0,0,1,.97-.97.969.969,0,0,1,.969.97A.969.969,0,0,1-1304.839,1152.8Zm1.333-7.33h-2.667a.444.444,0,0,1-.444-.445.444.444,0,0,1,.444-.444h2.667a.444.444,0,0,1,.445.444A.445.445,0,0,1-1303.506,1145.466Zm0-2.667h-2.667a.444.444,0,0,1-.444-.445.444.444,0,0,1,.444-.444h2.667a.444.444,0,0,1,.445.444A.445.445,0,0,1-1303.506,1142.8Z" fill="#858c9e"/></g></g></svg>