<svg xmlns="http://www.w3.org/2000/svg" xmlns:xlink="http://www.w3.org/1999/xlink" width="387" height="125" viewBox="0 0 387 125">
  <defs>
    <clipPath id="clip-path">
      <rect id="사각형_28832" data-name="사각형 28832" width="387" height="125" rx="1" transform="translate(4072 -326)" fill="#fff" stroke="#dbdbdb" stroke-width="1"/>
    </clipPath>
  </defs>
  <g id="마스크_그룹_1" data-name="마스크 그룹 1" transform="translate(-4072 326)" clip-path="url(#clip-path)">
    <g id="그룹_32028" data-name="그룹 32028">
      <path id="패스_13705" data-name="패스 13705" d="M0,101.6c.713-.176,44.647-83.357,114.54-51.983S200.2,70.263,199.841,61.1s45.5-6.5,45.5-6.5-.919,44-6.442,44.531S150.529,112,139.661,112s-97.812-8.282-101.732-10.4S0,101.6,0,101.6Z" transform="translate(4167.659 -267.6)" fill="#f8f8fc"/>
      <path id="패스_13706" data-name="패스 13706" d="M4251.346-242.949c9.745-8.775,33.205-50.185,110.083-43.045s95.646-1.071,122.715-38.2-5.774-53.19-32.122-54.618S4466.459-422,4468.264-422s121.994,24.988,127.407,34.627,89.872,72.467-7.94,129.94-23.821,107.807-171.08,80.677-211.865-33.556-212.226-34.984S4251.346-242.949,4251.346-242.949Z" transform="translate(-6.39 50.745)" fill="#f4f4f9"/>
    </g>
  </g>
</svg>
