<svg xmlns="http://www.w3.org/2000/svg" preserveAspectRatio="none" viewBox="0 0 32 32"><g transform="translate(1285.355 -1282.928)"><rect width="32" height="32" transform="translate(-1285.356 1282.928)" fill="none"/><g transform="translate(-1283.07 1285.213)"><path d="M-1269.291,1284.927a14.04,14.04,0,0,0-14.065,14.065.754.754,0,0,0,.758.738h11.9a2.151,2.151,0,0,0,2.151-2.151v-11.9A.754.754,0,0,0-1269.291,1284.927Z" transform="translate(1283.356 -1284.927)" fill="#858c9e"/><path d="M-1275.705,1300.161a.894.894,0,0,0-.777-.479h-5.135a.867.867,0,0,0-.7.354.867.867,0,0,0-.129.774,13.538,13.538,0,0,0,10.7,9.287,1.151,1.151,0,0,0,1.335-1.134v-4.283a1.119,1.119,0,0,0-.832-1.095A7.041,7.041,0,0,1-1275.705,1300.161Z" transform="translate(1283.48 -1282.819)" fill="#858c9e"/><path d="M-1267.472,1285.837a.872.872,0,0,0-.775.128.871.871,0,0,0-.354.7v5.135a.9.9,0,0,0,.479.776,7.043,7.043,0,0,1,3.424,4.461,1.121,1.121,0,0,0,1.095.833h4.284a1.151,1.151,0,0,0,1.134-1.335A13.539,13.539,0,0,0-1267.472,1285.837Z" transform="translate(1285.464 -1284.803)" fill="#858c9e"/><path d="M-1264.441,1298.722a7.063,7.063,0,0,1-5.12,5.119,1.126,1.126,0,0,0-.841,1.1v4.281a1.155,1.155,0,0,0,1.343,1.134,13.519,13.519,0,0,0,11.129-11.129,1.155,1.155,0,0,0-1.134-1.344h-4.281A1.124,1.124,0,0,0-1264.441,1298.722Z" transform="translate(1285.207 -1283.076)" fill="#858c9e"/></g></g></svg>