<svg xmlns="http://www.w3.org/2000/svg" preserveAspectRatio="none" viewBox="0 0 32 32"><g transform="translate(-11262 5024)"><g transform="translate(9544 -5901)"><g transform="translate(1718 876.999)"><g transform="translate(0 0)" opacity="0.5"><rect width="32" height="32" transform="translate(0 0.001)" fill="none"/></g></g><g transform="translate(1724.776 879.259)"><g transform="translate(0.224 -0.259)"><circle cx="2" cy="2" r="2" fill="#858c9e"/></g></g><g transform="translate(1743.975 878.128)"><g transform="translate(0 0)"><circle cx="3" cy="3" r="3" transform="translate(0.025 -0.128)" fill="#858c9e"/></g></g><g transform="translate(1723.647 893.94)"><g transform="translate(0)"><circle cx="4.5" cy="4.5" r="4.5" transform="translate(0.353 0.06)" fill="#858c9e"/></g></g><g transform="translate(1728.164 883.648)"><g transform="translate(0 0)"><path d="M-1110.571,1288.155a7.9,7.9,0,0,0-7.9,7.906,7.681,7.681,0,0,0,.056.9,5.76,5.76,0,0,1,1.38-.186,5.75,5.75,0,0,1,5.75,5.75,5.755,5.755,0,0,1-.186,1.381,7.685,7.685,0,0,0,.9.056,7.9,7.9,0,0,0,7.906-7.905A7.9,7.9,0,0,0-1110.571,1288.155Z" transform="translate(1118.476 -1288.155)" fill="#858c9e"/></g></g><rect width="1" height="21" rx="0.5" transform="translate(1720 885)" fill="#858c9e"/><rect width="1" height="22" rx="0.5" transform="translate(1742 905) rotate(90)" fill="#858c9e"/></g></g></svg>