<svg xmlns="http://www.w3.org/2000/svg" preserveAspectRatio="none" viewBox="0 0 32 32"><g transform="translate(1366.438 -1282.927)"><g transform="translate(-1366.438 1282.927)"><g opacity="0.5"><rect width="32" height="32" fill="none"/></g></g><g transform="translate(-1365.438 1284.783)"><path d="M-1334.75,1294.964l-8.571-8.855a1.047,1.047,0,0,0-1.445-.068l-12.241,10.543-5.765-3.97a1.042,1.042,0,0,0-1.1-.056,1.114,1.114,0,0,0-.566.976v13.132l13.421-7.464a1.042,1.042,0,0,1,1.2.134l6.905,6.111,8.47-5.469v-4.231A1.139,1.139,0,0,0-1334.75,1294.964Z" transform="translate(1364.438 -1285.783)" fill="#858c9e"/><g transform="translate(0 18.096)"><path d="M-1342.442,1302.8a1.289,1.289,0,0,1-1.264-.076l-6.291-4.314a1.5,1.5,0,0,0-1.406-.121l-13.035,5.615v3.312a.983.983,0,0,0,1.071.857h27.858a.982.982,0,0,0,1.071-.857V1298.8Z" transform="translate(1364.438 -1298.167)" fill="#858c9e"/></g></g></g></svg>