<svg xmlns="http://www.w3.org/2000/svg" preserveAspectRatio="none" viewBox="0 0 32 32"><g transform="translate(1180.711 -1282.945)"><rect width="32" height="32" transform="translate(-1180.711 1282.945)" fill="none"/><g transform="translate(-1178.384 1285.255)"><path d="M-1177.508,1297.594h10.3a1.131,1.131,0,0,0,1.131-1.131v-10.3a1.143,1.143,0,0,0-1.327-1.122,13.578,13.578,0,0,0-11.223,11.223A1.143,1.143,0,0,0-1177.508,1297.594Z" transform="translate(1178.654 -1284.983)" fill="#858c9e"/><path d="M-1165.464,1298.284a1.131,1.131,0,0,0-1.019-.64h-11.035a1.141,1.141,0,0,0-1.121,1.324,13.427,13.427,0,0,0,3.813,7.424,13.367,13.367,0,0,0,4.39,2.953,13.532,13.532,0,0,0,5.205,1.03,13.405,13.405,0,0,0,3.857-.56,1.142,1.142,0,0,0,.709-1.587Z" transform="translate(1178.653 -1283.335)" fill="#858c9e"/><path d="M-1153.3,1298.449a13.568,13.568,0,0,0-11.966-13.461.724.724,0,0,0-.763.693v12.305a1.144,1.144,0,0,0,.112.492l5.373,11.131h0a.725.725,0,0,0,1.064.218A13.555,13.555,0,0,0-1153.3,1298.449Z" transform="translate(1180.302 -1284.988)" fill="#858c9e"/></g></g></svg>