<svg xmlns="http://www.w3.org/2000/svg" preserveAspectRatio="none" viewBox="0 0 32 32"><g transform="translate(1236.643 -1282.928)"><rect width="32" height="32" transform="translate(-1236.643 1282.928)" fill="none"/><g transform="translate(-1234.356 1285.345)"><path d="M-1212.876,1309.732a13.6,13.6,0,0,1-8.572,2.6,13.845,13.845,0,0,1-13.166-12.833,13.736,13.736,0,0,1,11.511-14.439,1.153,1.153,0,0,1,1.334,1.135v3.5a1.126,1.126,0,0,1-.871,1.105,8.01,8.01,0,0,0-6.271,8.214,8.107,8.107,0,0,0,8.036,7.608,7.965,7.965,0,0,0,4.26-1.25,1.13,1.13,0,0,1,1.408.158l2.465,2.465A1.15,1.15,0,0,1-1212.876,1309.732Z" transform="translate(1234.641 -1285.042)" fill="#858c9e"/><path d="M-1209.895,1298.992a13.488,13.488,0,0,1-2.432,5.854,1.15,1.15,0,0,1-1.738.13l-2.466-2.466a1.12,1.12,0,0,1-.169-1.391,7.878,7.878,0,0,0,1.068-2.593,1.121,1.121,0,0,1,1.1-.863h3.5A1.152,1.152,0,0,1-1209.895,1298.992Z" transform="translate(1237.181 -1283.239)" fill="#858c9e"/><path d="M-1210.317,1297.75h-3.5a1.128,1.128,0,0,1-1.105-.878A8,8,0,0,0-1221,1290.8a1.127,1.127,0,0,1-.879-1.105v-3.5a1.155,1.155,0,0,1,1.342-1.134,13.732,13.732,0,0,1,11.351,11.351A1.155,1.155,0,0,1-1210.317,1297.75Z" transform="translate(1236.465 -1285.042)" fill="#858c9e"/></g></g></svg>